<?xml version="1.0" encoding="UTF-8"?>
<svg xmlns="http://www.w3.org/2000/svg" xmlns:xlink="http://www.w3.org/1999/xlink" width="3872.98" height="3872.98" viewBox="0 0 3872.98 3872.98">
<defs>
<clipPath id="clip-0">
<path clip-rule="nonzero" d="M 697 699 L 3176 699 L 3176 3174 L 697 3174 Z M 697 699 "/>
</clipPath>
<clipPath id="clip-1">
<path clip-rule="evenodd" d="M 1823.941406 1959.089844 L 1577.238281 2205.78125 C 1569.421875 2213.601562 1569.421875 2226.621094 1577.238281 2234.441406 L 1823.941406 2481.128906 C 1836.691406 2493.878906 1858.429688 2485.210938 1858.429688 2467.011719 L 1858.429688 2339.929688 C 1858.429688 2321.980469 1872.550781 2307.050781 1890.699219 2306.050781 C 2165.46875 2291.410156 2331.140625 2161.039062 2353.640625 1919.558594 C 2202.628906 2110.429688 1989.539062 2134.640625 1894.328125 2134.980469 C 1875 2134.980469 1858.429688 2122.101562 1858.429688 2101.101562 L 1858.429688 1973.410156 C 1858.429688 1955.320312 1836.761719 1946.261719 1823.941406 1959.089844 Z M 2035.730469 1205.878906 C 2025.039062 1205.878906 2015.171875 1213.589844 2015.171875 1226.050781 L 2015.171875 1353.140625 C 2015.171875 1371.289062 2001.050781 1386.011719 1983.101562 1387.03125 C 1708.320312 1401.730469 1542.460938 1531.828125 1519.960938 1773.511719 C 1672.050781 1581.28125 1887.078125 1558.070312 1981.269531 1558.070312 C 1999.671875 1558.070312 2015.171875 1572.699219 2015.171875 1591.96875 L 2015.171875 1719.648438 C 2015.171875 1737.71875 2036.859375 1746.570312 2049.660156 1733.78125 L 2296.550781 1486.878906 C 2304.429688 1479.011719 2304.429688 1466.308594 2296.550781 1458.441406 L 2049.660156 1211.929688 C 2045.621094 1207.890625 2040.78125 1205.878906 2035.730469 1205.878906 Z M 1453.800781 1891.511719 C 1458.980469 1923.410156 1502.289062 1930.46875 1517.128906 1901.800781 C 1634.929688 1678.699219 1837.660156 1633.921875 1947.390625 1627.058594 L 1947.390625 1719.648438 C 1947.390625 1798.121094 2042.179688 1837.328125 2097.46875 1781.980469 L 2344.179688 1534.878906 C 2378.460938 1500.589844 2378.460938 1444.910156 2344.179688 1410.621094 L 2097.46875 1163.921875 C 2071.859375 1138.300781 2035.140625 1131.039062 2001.660156 1144.960938 C 1933.089844 1173.449219 1947.390625 1245.171875 1947.390625 1321.671875 C 1772.101562 1336.378906 1640.179688 1397.101562 1554.660156 1502.601562 C 1420.109375 1668.609375 1452.378906 1882.441406 1453.800781 1891.511719 Z M 1535.878906 996.289062 L 1666.601562 862.761719 C 1795.921875 730.480469 2087.71875 737.269531 2219.289062 872.441406 L 2339.988281 996.300781 Z M 1167.761719 2131.550781 L 1666.800781 2641.300781 C 1796.460938 2773.679688 2088 2766.671875 2219.699219 2631.609375 L 2705.839844 2133.011719 L 2705.839844 1084.648438 C 2705.839844 1073.558594 2696.359375 1064.070312 2685.269531 1064.070312 L 1188.328125 1064.070312 C 1177.03125 1064.070312 1167.761719 1073.351562 1167.761719 1084.648438 Z M 2773.820312 1628.070312 L 2773.820312 1440.75 L 2956.488281 1628.070312 Z M 3081.871094 1747.339844 L 2773.820312 2063.269531 L 2773.820312 1695.851562 L 2978.570312 1695.851562 C 3020.710938 1695.851562 3058.191406 1716.089844 3081.871094 1747.339844 Z M 765.179688 1817.410156 C 765.019531 1820.039062 764.933594 1822.691406 764.933594 1825.351562 L 764.933594 2976.339844 C 764.933594 3047.75 823.023438 3105.851562 894.433594 3105.851562 L 2978.570312 3105.851562 C 3049.960938 3105.851562 3108.070312 3047.75 3108.070312 2976.339844 L 3108.070312 1825.351562 C 3108.070312 1822.871094 3107.988281 1820.398438 3107.851562 1817.941406 L 2268.101562 2679.011719 C 2111.199219 2839.96875 1775.359375 2849.761719 1617.988281 2688.699219 Z M 1099.96875 1695.851562 L 1099.96875 2062.328125 L 791.339844 1747.078125 C 815.6875 1715.078125 853.675781 1695.851562 894.433594 1695.851562 Z M 917.253906 1628.070312 L 1099.96875 1441.5 L 1099.96875 1628.070312 Z M 2978.570312 3173.628906 C 3087.289062 3173.628906 3175.839844 3085.058594 3175.839844 2976.339844 L 3175.839844 1825.351562 C 3175.839844 1795.328125 3167.351562 1757.480469 3152.960938 1733.28125 C 3135.570312 1700.46875 3109.171875 1673.109375 3077.101562 1654.519531 L 2773.820312 1343.488281 L 2773.820312 1084.648438 C 2773.820312 1035.828125 2734.28125 996.300781 2685.46875 996.300781 L 2434.78125 996.300781 L 2267.910156 825.03125 C 2111.339844 664.550781 1775.890625 654 1617.78125 815.351562 L 1440.671875 996.289062 L 1188.328125 996.289062 C 1139.511719 996.289062 1099.96875 1035.828125 1099.96875 1084.648438 L 1099.96875 1344.460938 L 796.855469 1653.96875 C 737.363281 1687.988281 697.148438 1752.089844 697.148438 1825.351562 L 697.148438 2976.339844 C 697.148438 3085.058594 785.703125 3173.628906 894.433594 3173.628906 Z M 1837.660156 2555.160156 C 1815.070312 2555.160156 1793.078125 2546.289062 1775.941406 2529.140625 L 1529.21875 2282.230469 C 1495.089844 2248.070312 1495.011719 2192.199219 1529.21875 2157.96875 L 1775.941406 1911.28125 C 1831.339844 1855.878906 1926.011719 1895.230469 1926.011719 1973.601562 L 1926.011719 2066.191406 C 2035.730469 2059.328125 2238.460938 2014.558594 2356.058594 1791.460938 C 2371.351562 1762.570312 2414.488281 1770.390625 2419.609375 1801.949219 C 2421.03125 1811.019531 2453.300781 2024.839844 2318.75 2190.851562 C 2233.21875 2296.351562 2101.289062 2357.070312 1926.011719 2371.800781 C 1926.011719 2446.070312 1940.269531 2521.160156 1871.75 2548.5 C 1860.660156 2552.738281 1849.160156 2555.160156 1837.660156 2555.160156 "/>
</clipPath>
<linearGradient id="linear-pattern-0" gradientUnits="userSpaceOnUse" x1="-0.000000000000000056" y1="0" x2="1.000001" y2="0" gradientTransform="matrix(2478.69, 0, 0, 2478.69, 697.148, 1936.51)">
<stop offset="0" stop-color="rgb(94.508362%, 95.684814%, 98.03772%)" stop-opacity="1"/>
<stop offset="0.0078125" stop-color="rgb(94.314575%, 95.552063%, 97.976685%)" stop-opacity="1"/>
<stop offset="0.015625" stop-color="rgb(93.928528%, 95.285034%, 97.854614%)" stop-opacity="1"/>
<stop offset="0.0234375" stop-color="rgb(93.54248%, 95.018005%, 97.732544%)" stop-opacity="1"/>
<stop offset="0.03125" stop-color="rgb(93.156433%, 94.752502%, 97.608948%)" stop-opacity="1"/>
<stop offset="0.0390625" stop-color="rgb(92.770386%, 94.485474%, 97.486877%)" stop-opacity="1"/>
<stop offset="0.046875" stop-color="rgb(92.385864%, 94.218445%, 97.364807%)" stop-opacity="1"/>
<stop offset="0.0546875" stop-color="rgb(91.999817%, 93.952942%, 97.241211%)" stop-opacity="1"/>
<stop offset="0.0625" stop-color="rgb(91.61377%, 93.685913%, 97.119141%)" stop-opacity="1"/>
<stop offset="0.0703125" stop-color="rgb(91.227722%, 93.418884%, 96.99707%)" stop-opacity="1"/>
<stop offset="0.078125" stop-color="rgb(90.841675%, 93.153381%, 96.873474%)" stop-opacity="1"/>
<stop offset="0.0859375" stop-color="rgb(90.455627%, 92.886353%, 96.751404%)" stop-opacity="1"/>
<stop offset="0.09375" stop-color="rgb(90.06958%, 92.619324%, 96.629333%)" stop-opacity="1"/>
<stop offset="0.101562" stop-color="rgb(89.683533%, 92.353821%, 96.505737%)" stop-opacity="1"/>
<stop offset="0.109375" stop-color="rgb(89.297485%, 92.086792%, 96.383667%)" stop-opacity="1"/>
<stop offset="0.117188" stop-color="rgb(88.911438%, 91.819763%, 96.261597%)" stop-opacity="1"/>
<stop offset="0.125" stop-color="rgb(88.525391%, 91.55426%, 96.138%)" stop-opacity="1"/>
<stop offset="0.132812" stop-color="rgb(88.139343%, 91.287231%, 96.01593%)" stop-opacity="1"/>
<stop offset="0.140625" stop-color="rgb(87.753296%, 91.020203%, 95.89386%)" stop-opacity="1"/>
<stop offset="0.148438" stop-color="rgb(87.367249%, 90.7547%, 95.77179%)" stop-opacity="1"/>
<stop offset="0.15625" stop-color="rgb(86.981201%, 90.487671%, 95.648193%)" stop-opacity="1"/>
<stop offset="0.164062" stop-color="rgb(86.595154%, 90.220642%, 95.526123%)" stop-opacity="1"/>
<stop offset="0.171875" stop-color="rgb(86.209106%, 89.953613%, 95.404053%)" stop-opacity="1"/>
<stop offset="0.179687" stop-color="rgb(85.823059%, 89.68811%, 95.280457%)" stop-opacity="1"/>
<stop offset="0.1875" stop-color="rgb(85.437012%, 89.421082%, 95.158386%)" stop-opacity="1"/>
<stop offset="0.195312" stop-color="rgb(85.050964%, 89.154053%, 95.036316%)" stop-opacity="1"/>
<stop offset="0.203125" stop-color="rgb(84.664917%, 88.88855%, 94.91272%)" stop-opacity="1"/>
<stop offset="0.210937" stop-color="rgb(84.27887%, 88.621521%, 94.790649%)" stop-opacity="1"/>
<stop offset="0.21875" stop-color="rgb(83.892822%, 88.354492%, 94.668579%)" stop-opacity="1"/>
<stop offset="0.226562" stop-color="rgb(83.506775%, 88.088989%, 94.544983%)" stop-opacity="1"/>
<stop offset="0.234375" stop-color="rgb(83.120728%, 87.82196%, 94.422913%)" stop-opacity="1"/>
<stop offset="0.242187" stop-color="rgb(82.73468%, 87.554932%, 94.300842%)" stop-opacity="1"/>
<stop offset="0.25" stop-color="rgb(82.348633%, 87.289429%, 94.177246%)" stop-opacity="1"/>
<stop offset="0.257812" stop-color="rgb(81.962585%, 87.0224%, 94.055176%)" stop-opacity="1"/>
<stop offset="0.265625" stop-color="rgb(81.576538%, 86.755371%, 93.933105%)" stop-opacity="1"/>
<stop offset="0.273438" stop-color="rgb(81.190491%, 86.489868%, 93.809509%)" stop-opacity="1"/>
<stop offset="0.28125" stop-color="rgb(80.804443%, 86.222839%, 93.687439%)" stop-opacity="1"/>
<stop offset="0.289062" stop-color="rgb(80.418396%, 85.955811%, 93.565369%)" stop-opacity="1"/>
<stop offset="0.296875" stop-color="rgb(80.032349%, 85.690308%, 93.443298%)" stop-opacity="1"/>
<stop offset="0.304688" stop-color="rgb(79.646301%, 85.423279%, 93.319702%)" stop-opacity="1"/>
<stop offset="0.3125" stop-color="rgb(79.260254%, 85.15625%, 93.197632%)" stop-opacity="1"/>
<stop offset="0.320313" stop-color="rgb(78.874207%, 84.889221%, 93.075562%)" stop-opacity="1"/>
<stop offset="0.328125" stop-color="rgb(78.488159%, 84.623718%, 92.951965%)" stop-opacity="1"/>
<stop offset="0.335938" stop-color="rgb(78.102112%, 84.356689%, 92.829895%)" stop-opacity="1"/>
<stop offset="0.34375" stop-color="rgb(77.716064%, 84.089661%, 92.707825%)" stop-opacity="1"/>
<stop offset="0.351563" stop-color="rgb(77.330017%, 83.824158%, 92.584229%)" stop-opacity="1"/>
<stop offset="0.359375" stop-color="rgb(76.94397%, 83.557129%, 92.462158%)" stop-opacity="1"/>
<stop offset="0.367188" stop-color="rgb(76.557922%, 83.2901%, 92.340088%)" stop-opacity="1"/>
<stop offset="0.375" stop-color="rgb(76.171875%, 83.024597%, 92.216492%)" stop-opacity="1"/>
<stop offset="0.382813" stop-color="rgb(75.785828%, 82.757568%, 92.094421%)" stop-opacity="1"/>
<stop offset="0.390625" stop-color="rgb(75.39978%, 82.49054%, 91.972351%)" stop-opacity="1"/>
<stop offset="0.398438" stop-color="rgb(75.013733%, 82.225037%, 91.848755%)" stop-opacity="1"/>
<stop offset="0.40625" stop-color="rgb(74.627686%, 81.958008%, 91.726685%)" stop-opacity="1"/>
<stop offset="0.414063" stop-color="rgb(74.241638%, 81.690979%, 91.604614%)" stop-opacity="1"/>
<stop offset="0.421875" stop-color="rgb(73.855591%, 81.425476%, 91.482544%)" stop-opacity="1"/>
<stop offset="0.429688" stop-color="rgb(73.469543%, 81.158447%, 91.358948%)" stop-opacity="1"/>
<stop offset="0.4375" stop-color="rgb(73.083496%, 80.891418%, 91.236877%)" stop-opacity="1"/>
<stop offset="0.445313" stop-color="rgb(72.697449%, 80.625916%, 91.114807%)" stop-opacity="1"/>
<stop offset="0.453125" stop-color="rgb(72.311401%, 80.358887%, 90.991211%)" stop-opacity="1"/>
<stop offset="0.460938" stop-color="rgb(71.925354%, 80.091858%, 90.869141%)" stop-opacity="1"/>
<stop offset="0.46875" stop-color="rgb(71.539307%, 79.826355%, 90.74707%)" stop-opacity="1"/>
<stop offset="0.476563" stop-color="rgb(71.153259%, 79.559326%, 90.623474%)" stop-opacity="1"/>
<stop offset="0.484375" stop-color="rgb(70.767212%, 79.292297%, 90.501404%)" stop-opacity="1"/>
<stop offset="0.492188" stop-color="rgb(70.381165%, 79.025269%, 90.379333%)" stop-opacity="1"/>
<stop offset="0.5" stop-color="rgb(69.995117%, 78.759766%, 90.255737%)" stop-opacity="1"/>
<stop offset="0.507812" stop-color="rgb(69.60907%, 78.492737%, 90.133667%)" stop-opacity="1"/>
<stop offset="0.515625" stop-color="rgb(69.223022%, 78.225708%, 90.011597%)" stop-opacity="1"/>
<stop offset="0.523438" stop-color="rgb(68.836975%, 77.960205%, 89.888%)" stop-opacity="1"/>
<stop offset="0.53125" stop-color="rgb(68.450928%, 77.693176%, 89.76593%)" stop-opacity="1"/>
<stop offset="0.539062" stop-color="rgb(68.06488%, 77.426147%, 89.64386%)" stop-opacity="1"/>
<stop offset="0.546875" stop-color="rgb(67.678833%, 77.160645%, 89.520264%)" stop-opacity="1"/>
<stop offset="0.554687" stop-color="rgb(67.292786%, 76.893616%, 89.398193%)" stop-opacity="1"/>
<stop offset="0.5625" stop-color="rgb(66.906738%, 76.626587%, 89.276123%)" stop-opacity="1"/>
<stop offset="0.570313" stop-color="rgb(66.520691%, 76.361084%, 89.154053%)" stop-opacity="1"/>
<stop offset="0.578125" stop-color="rgb(66.134644%, 76.094055%, 89.030457%)" stop-opacity="1"/>
<stop offset="0.585938" stop-color="rgb(65.748596%, 75.827026%, 88.908386%)" stop-opacity="1"/>
<stop offset="0.59375" stop-color="rgb(65.362549%, 75.561523%, 88.786316%)" stop-opacity="1"/>
<stop offset="0.601562" stop-color="rgb(64.976501%, 75.294495%, 88.66272%)" stop-opacity="1"/>
<stop offset="0.609375" stop-color="rgb(64.590454%, 75.027466%, 88.540649%)" stop-opacity="1"/>
<stop offset="0.617188" stop-color="rgb(64.204407%, 74.761963%, 88.418579%)" stop-opacity="1"/>
<stop offset="0.625" stop-color="rgb(63.818359%, 74.494934%, 88.294983%)" stop-opacity="1"/>
<stop offset="0.632812" stop-color="rgb(63.432312%, 74.227905%, 88.172913%)" stop-opacity="1"/>
<stop offset="0.640625" stop-color="rgb(63.046265%, 73.960876%, 88.050842%)" stop-opacity="1"/>
<stop offset="0.648437" stop-color="rgb(62.660217%, 73.695374%, 87.927246%)" stop-opacity="1"/>
<stop offset="0.65625" stop-color="rgb(62.27417%, 73.428345%, 87.805176%)" stop-opacity="1"/>
<stop offset="0.664062" stop-color="rgb(61.888123%, 73.161316%, 87.683105%)" stop-opacity="1"/>
<stop offset="0.671875" stop-color="rgb(61.502075%, 72.895813%, 87.559509%)" stop-opacity="1"/>
<stop offset="0.679688" stop-color="rgb(61.116028%, 72.628784%, 87.437439%)" stop-opacity="1"/>
<stop offset="0.6875" stop-color="rgb(60.72998%, 72.361755%, 87.315369%)" stop-opacity="1"/>
<stop offset="0.695312" stop-color="rgb(60.343933%, 72.096252%, 87.193298%)" stop-opacity="1"/>
<stop offset="0.703125" stop-color="rgb(59.957886%, 71.829224%, 87.069702%)" stop-opacity="1"/>
<stop offset="0.710938" stop-color="rgb(59.571838%, 71.562195%, 86.947632%)" stop-opacity="1"/>
<stop offset="0.71875" stop-color="rgb(59.185791%, 71.296692%, 86.825562%)" stop-opacity="1"/>
<stop offset="0.726562" stop-color="rgb(58.80127%, 71.029663%, 86.701965%)" stop-opacity="1"/>
<stop offset="0.734375" stop-color="rgb(58.415222%, 70.762634%, 86.579895%)" stop-opacity="1"/>
<stop offset="0.742187" stop-color="rgb(58.029175%, 70.497131%, 86.457825%)" stop-opacity="1"/>
<stop offset="0.75" stop-color="rgb(57.643127%, 70.230103%, 86.334229%)" stop-opacity="1"/>
<stop offset="0.757812" stop-color="rgb(57.25708%, 69.963074%, 86.212158%)" stop-opacity="1"/>
<stop offset="0.765625" stop-color="rgb(56.871033%, 69.697571%, 86.090088%)" stop-opacity="1"/>
<stop offset="0.773437" stop-color="rgb(56.484985%, 69.430542%, 85.966492%)" stop-opacity="1"/>
<stop offset="0.78125" stop-color="rgb(56.098938%, 69.163513%, 85.844421%)" stop-opacity="1"/>
<stop offset="0.789063" stop-color="rgb(55.712891%, 68.89801%, 85.722351%)" stop-opacity="1"/>
<stop offset="0.796875" stop-color="rgb(55.326843%, 68.630981%, 85.598755%)" stop-opacity="1"/>
<stop offset="0.804688" stop-color="rgb(54.940796%, 68.363953%, 85.476685%)" stop-opacity="1"/>
<stop offset="0.8125" stop-color="rgb(54.554749%, 68.096924%, 85.354614%)" stop-opacity="1"/>
<stop offset="0.820312" stop-color="rgb(54.168701%, 67.831421%, 85.232544%)" stop-opacity="1"/>
<stop offset="0.828125" stop-color="rgb(53.782654%, 67.564392%, 85.108948%)" stop-opacity="1"/>
<stop offset="0.835938" stop-color="rgb(53.396606%, 67.297363%, 84.986877%)" stop-opacity="1"/>
<stop offset="0.84375" stop-color="rgb(53.010559%, 67.03186%, 84.864807%)" stop-opacity="1"/>
<stop offset="0.851562" stop-color="rgb(52.624512%, 66.764832%, 84.741211%)" stop-opacity="1"/>
<stop offset="0.859375" stop-color="rgb(52.238464%, 66.497803%, 84.619141%)" stop-opacity="1"/>
<stop offset="0.867187" stop-color="rgb(51.852417%, 66.2323%, 84.49707%)" stop-opacity="1"/>
<stop offset="0.875" stop-color="rgb(51.46637%, 65.965271%, 84.373474%)" stop-opacity="1"/>
<stop offset="0.882812" stop-color="rgb(51.080322%, 65.698242%, 84.251404%)" stop-opacity="1"/>
<stop offset="0.890625" stop-color="rgb(50.694275%, 65.432739%, 84.129333%)" stop-opacity="1"/>
<stop offset="0.898438" stop-color="rgb(50.308228%, 65.16571%, 84.005737%)" stop-opacity="1"/>
<stop offset="0.90625" stop-color="rgb(49.92218%, 64.898682%, 83.883667%)" stop-opacity="1"/>
<stop offset="0.914063" stop-color="rgb(49.536133%, 64.633179%, 83.761597%)" stop-opacity="1"/>
<stop offset="0.921875" stop-color="rgb(49.150085%, 64.36615%, 83.638%)" stop-opacity="1"/>
<stop offset="0.929688" stop-color="rgb(48.764038%, 64.099121%, 83.51593%)" stop-opacity="1"/>
<stop offset="0.9375" stop-color="rgb(48.377991%, 63.833618%, 83.39386%)" stop-opacity="1"/>
<stop offset="0.945312" stop-color="rgb(47.991943%, 63.566589%, 83.270264%)" stop-opacity="1"/>
<stop offset="0.953125" stop-color="rgb(47.605896%, 63.299561%, 83.148193%)" stop-opacity="1"/>
<stop offset="0.960938" stop-color="rgb(47.219849%, 63.032532%, 83.026123%)" stop-opacity="1"/>
<stop offset="0.96875" stop-color="rgb(46.833801%, 62.767029%, 82.904053%)" stop-opacity="1"/>
<stop offset="0.976562" stop-color="rgb(46.447754%, 62.5%, 82.780457%)" stop-opacity="1"/>
<stop offset="0.984375" stop-color="rgb(46.061707%, 62.232971%, 82.658386%)" stop-opacity="1"/>
<stop offset="0.992187" stop-color="rgb(45.675659%, 61.967468%, 82.536316%)" stop-opacity="1"/>
<stop offset="1" stop-color="rgb(45.289612%, 61.700439%, 82.41272%)" stop-opacity="1"/>
</linearGradient>
</defs>
<path fill-rule="evenodd" fill="rgb(20.776367%, 43.138123%, 77.34375%)" fill-opacity="1" d="M 1936.488281 0 C 3001.578125 0 3872.980469 871.421875 3872.980469 1936.488281 C 3872.980469 3001.578125 3001.578125 3872.980469 1936.488281 3872.980469 C 871.414062 3872.980469 0 3001.578125 0 1936.488281 C 0 871.421875 871.414062 0 1936.488281 0 "/>
<g clip-path="url(#clip-0)">
<g clip-path="url(#clip-1)">
<path fill-rule="nonzero" fill="url(#linear-pattern-0)" d="M 697.148438 654 L 697.148438 3173.628906 L 3175.839844 3173.628906 L 3175.839844 654 Z M 697.148438 654 "/>
</g>
</g>
</svg>
